<?xml version="1.0" standalone="no"?>
<!DOCTYPE svg PUBLIC "-//W3C//DTD SVG 20010904//EN"
 "http://www.w3.org/TR/2001/REC-SVG-20010904/DTD/svg10.dtd">
<svg version="1.0" xmlns="http://www.w3.org/2000/svg"
 width="384.000000pt" height="249.000000pt" viewBox="0 0 384.000000 249.000000"
 preserveAspectRatio="xMidYMid meet">

<g transform="translate(0.000000,249.000000) scale(0.100000,-0.100000)"
fill="#000000" stroke="none">
<path d="M2470 2465 c0 -18 3 -17 -38 -6 -35 10 -85 0 -64 -13 19 -12 14 -25
-8 -19 -21 6 -45 -16 -113 -100 -21 -26 -42 -47 -47 -47 -5 0 -22 12 -39 26
-24 20 -31 22 -31 10 0 -18 -13 -20 -40 -6 -16 8 -18 8 -14 -5 6 -16 -11 -21
-20 -6 -13 20 -136 44 -198 38 -75 -7 -245 -59 -210 -65 72 -12 -27 -44 -206
-67 -141 -18 -247 -51 -217 -68 15 -8 6 -14 -56 -37 -263 -96 -626 -344 -681
-465 -14 -30 -52 -33 -105 -9 -46 22 -85 71 -140 174 -81 153 -118 191 -197
206 -38 7 -39 6 -32 -17 4 -13 9 -38 11 -56 2 -18 16 -49 31 -69 28 -36 28
-37 5 -29 -21 6 -22 5 -16 -17 4 -12 14 -36 22 -52 8 -15 16 -45 17 -66 4 -45
39 -106 67 -115 11 -4 18 -14 17 -23 -4 -22 62 -57 136 -72 93 -18 103 -27
110 -107 3 -37 9 -89 12 -116 5 -37 -1 -67 -26 -144 -19 -60 -27 -99 -21 -101
6 -2 1 -23 -14 -51 -20 -40 -25 -69 -30 -167 -4 -66 -8 -141 -10 -169 -2 -27
-22 -122 -44 -210 -43 -171 -47 -196 -31 -225 23 -43 180 -70 273 -46 33 8 33
17 1 95 -27 69 -27 72 7 206 11 44 24 93 28 110 4 21 37 56 105 116 53 47 106
99 117 115 14 22 19 25 19 11 0 -10 4 -15 10 -12 13 8 46 -24 59 -58 6 -15 17
-27 25 -27 7 0 16 -9 19 -21 3 -11 15 -23 26 -26 11 -3 23 -13 26 -24 7 -23
61 -69 81 -69 8 0 14 10 14 23 0 17 6 12 26 -23 14 -25 36 -56 48 -70 18 -19
25 -42 30 -91 14 -146 63 -230 143 -245 44 -8 129 7 182 33 56 28 52 51 -21
130 -98 108 -137 203 -138 336 0 103 27 132 81 88 18 -14 29 -17 47 -10 17 7
24 5 28 -6 5 -12 13 -9 40 15 34 30 54 38 54 22 0 -5 -5 -46 -11 -91 -12 -85
-5 -167 11 -141 19 31 17 1 -6 -75 -27 -92 -30 -133 -10 -141 15 -6 9 -44 -19
-123 -31 -89 -12 -141 57 -155 55 -11 232 -6 257 7 44 22 48 41 15 82 -58 72
-74 98 -74 122 0 13 23 69 51 126 44 87 139 345 139 378 0 6 12 30 26 55 32
55 42 49 73 -43 13 -37 33 -77 44 -88 19 -20 19 -20 15 8 -3 15 -1 30 3 33 5
3 9 -2 9 -11 0 -23 45 -107 68 -129 21 -18 21 -18 16 20 -4 36 -4 37 7 14 38
-81 53 -107 71 -127 12 -12 25 -20 29 -17 4 2 15 -8 23 -23 18 -36 52 -67 64
-59 6 3 17 -10 26 -29 16 -33 16 -39 0 -94 -22 -82 -9 -109 66 -135 75 -26
232 -28 256 -4 16 15 15 19 -14 56 -45 56 -52 81 -62 223 -5 70 -15 143 -23
161 -8 19 -37 60 -65 92 -137 156 -202 541 -103 603 14 9 27 9 57 -2 28 -9 54
-11 94 -4 58 9 52 10 157 -45 18 -10 38 -14 44 -11 6 4 9 32 8 66 -2 45 2 63
16 79 18 19 18 19 48 -2 49 -35 69 -96 75 -225 6 -130 -2 -156 -59 -208 -32
-29 -47 -35 -82 -35 -49 0 -67 13 -67 48 0 24 1 24 25 8 13 -9 33 -16 44 -16
25 0 44 34 36 61 -9 28 -77 59 -129 59 -37 0 -48 -5 -70 -31 -47 -55 -29 -165
36 -226 61 -58 199 -71 286 -27 104 52 200 193 226 332 7 37 15 66 19 66 123
-24 200 -8 341 68 110 59 155 105 187 189 72 189 -9 463 -167 568 -67 44 -84
39 -34 -11 24 -24 57 -72 74 -108 29 -61 31 -72 31 -180 0 -63 -4 -128 -9
-145 -8 -28 -9 -26 -22 35 -20 99 -83 215 -153 287 -51 52 -150 123 -172 123
-4 0 18 -26 50 -58 70 -73 115 -148 152 -254 70 -202 14 -338 -140 -338 -74 0
-149 18 -155 38 -3 9 -17 57 -30 105 -28 96 -61 161 -113 220 -18 20 -33 42
-33 48 0 6 -9 24 -20 39 -11 16 -28 52 -37 81 -12 37 -35 71 -75 115 -65 69
-86 110 -119 237 -28 112 -71 184 -123 211 -28 14 -41 16 -44 8 -3 -9 -12 -6
-30 7 -54 38 -172 56 -172 26z"/>
</g>
</svg>
