<?xml version="1.0" standalone="no"?>
<!DOCTYPE svg PUBLIC "-//W3C//DTD SVG 20010904//EN"
 "http://www.w3.org/TR/2001/REC-SVG-20010904/DTD/svg10.dtd">
<svg version="1.0" xmlns="http://www.w3.org/2000/svg"
 width="373.000000pt" height="373.000000pt" viewBox="0 0 373.000000 373.000000"
 preserveAspectRatio="xMidYMid meet">

<g transform="translate(0.000000,373.000000) scale(0.100000,-0.100000)"
fill="#000000" stroke="none">
<path d="M2400 3096 c0 -19 -1 -19 -36 -5 -37 13 -80 4 -65 -15 9 -11 5 -15
-17 -19 -19 -4 -43 -25 -75 -67 -26 -33 -55 -64 -63 -67 -9 -3 -29 4 -45 16
-25 18 -29 19 -29 5 0 -9 -6 -14 -12 -11 -48 19 -51 20 -44 9 10 -16 4 -15
-46 6 -66 26 -203 23 -300 -7 -77 -24 -100 -41 -55 -41 21 -1 20 -2 -6 -16
-15 -8 -75 -21 -135 -30 -218 -30 -303 -54 -282 -79 6 -7 -7 -16 -43 -29 -83
-29 -280 -131 -385 -200 -134 -88 -226 -167 -269 -231 -41 -62 -54 -66 -121
-34 -49 24 -88 72 -139 173 -19 38 -47 87 -61 108 -29 45 -96 88 -137 88 -24
0 -26 -3 -20 -22 4 -13 8 -34 10 -48 1 -14 3 -28 4 -32 0 -3 13 -21 28 -39 26
-31 26 -31 4 -24 -21 6 -22 5 -16 -17 4 -12 15 -39 25 -58 9 -19 15 -41 13
-47 -9 -24 18 -82 50 -109 18 -15 31 -33 29 -40 -4 -18 50 -44 138 -66 41 -10
79 -23 85 -29 5 -5 13 -38 17 -72 4 -34 10 -85 13 -112 6 -42 2 -66 -25 -143
-17 -50 -29 -96 -25 -102 4 -6 -3 -30 -14 -53 -16 -33 -22 -71 -27 -162 -3
-66 -7 -140 -9 -165 -2 -25 -22 -121 -46 -214 -39 -154 -41 -171 -28 -195 22
-40 97 -62 193 -57 104 6 113 15 81 85 -32 68 -31 101 5 236 27 104 31 112 77
154 26 24 78 72 116 107 37 35 67 59 67 54 0 -6 3 -9 8 -8 12 4 52 -26 52 -39
0 -6 14 -27 30 -45 17 -18 30 -36 30 -40 0 -5 6 -8 13 -8 6 0 24 -16 40 -35
15 -19 36 -39 47 -45 17 -9 22 -7 28 11 8 21 9 21 21 -8 7 -17 28 -45 47 -64
26 -25 34 -41 34 -69 0 -57 20 -151 41 -193 31 -59 71 -79 151 -74 73 5 161
41 166 68 2 9 -28 50 -66 92 -87 96 -122 175 -129 292 -8 124 19 164 78 116
17 -14 30 -16 45 -10 17 6 24 4 28 -8 6 -14 11 -12 34 10 36 34 67 37 58 5 -4
-13 -10 -65 -13 -116 -5 -83 -4 -92 11 -86 20 8 20 3 -4 -74 -23 -73 -25 -114
-8 -142 10 -16 8 -34 -15 -103 -46 -138 -18 -167 168 -167 163 0 200 30 131
107 -68 77 -71 104 -20 199 47 89 85 186 124 319 18 61 36 112 41 115 4 3 13
18 19 34 15 40 32 22 59 -63 12 -38 31 -77 43 -87 21 -19 21 -19 16 9 -8 43 6
31 24 -21 10 -26 29 -59 43 -72 l25 -23 1 29 c0 27 2 26 20 -16 26 -57 66
-110 85 -110 7 0 14 -4 14 -9 0 -18 53 -72 65 -67 12 4 28 -19 38 -54 2 -8 -2
-37 -10 -65 -20 -76 -11 -99 50 -125 75 -33 222 -40 255 -14 l23 19 -30 38
c-41 52 -49 82 -60 224 -11 133 -21 162 -80 230 -79 89 -140 267 -148 428 -5
93 -3 102 19 135 20 29 29 34 54 31 16 -2 65 -3 108 -2 71 1 84 -2 133 -30 72
-42 85 -35 81 41 -2 46 1 64 15 77 16 16 19 15 56 -21 46 -45 57 -83 66 -214
5 -83 3 -99 -16 -138 -41 -85 -161 -125 -183 -62 -13 37 -5 42 32 21 26 -15
32 -15 46 -3 48 39 -20 110 -104 110 -58 0 -89 -29 -97 -89 -11 -83 42 -166
126 -196 185 -65 370 74 428 321 l16 70 96 0 96 -1 109 53 c129 64 184 115
216 200 71 188 -5 450 -159 553 -62 41 -75 36 -29 -12 77 -81 115 -199 104
-325 -9 -114 -29 -141 -40 -56 -9 68 -74 197 -132 261 -45 50 -154 131 -176
131 -5 0 14 -24 42 -52 108 -110 185 -287 178 -410 -4 -72 -20 -104 -71 -142
-34 -25 -124 -32 -192 -14 l-50 13 -27 98 c-28 100 -53 149 -137 272 -27 39
-56 94 -65 122 -12 36 -34 71 -70 110 -66 72 -77 92 -116 228 -17 61 -43 127
-56 148 -29 44 -81 79 -107 73 -10 -2 -34 4 -52 15 -19 11 -59 23 -89 26 -48
5 -56 3 -56 -11z"/>
</g>
</svg>
